<svg xmlns="http://www.w3.org/2000/svg" width="846.72" height="448.027" viewBox="536.64 212.475 846.72 448.027">
  <path d="M960 212.475c-233.444 0-423.36 189.916-423.36 423.36v24.667h846.72v-24.667c0-233.444-189.924-423.36-423.36-423.36zm87.229 398.684c-2.903-21.03-13.185-39.649-28.21-53.222l89.225-234.429-141.686 211.965c-2.169-.173-4.346-.337-6.558-.337-44.565 0-81.311 33.091-87.221 76.032H586.787c12.761-194.772 175.28-349.35 373.213-349.35s360.461 154.578 373.196 349.341h-285.967z"/>
  <path d="M722.011 507.885l-40.694-17.729c-9.271-4.035-20.079.199-24.131 9.487-4.044 9.288.199 20.088 9.487 24.132l40.694 17.729c2.385 1.045 4.864 1.538 7.309 1.538 7.076 0 13.815-4.13 16.813-11.016 4.052-9.289-.198-20.089-9.478-24.141zm52.255-128.883c-6.454-7.802-17.997-8.899-25.816-2.462-7.811 6.454-8.908 18.006-2.462 25.816l28.261 34.214c3.62 4.38 8.865 6.661 14.144 6.661 4.113 0 8.251-1.382 11.673-4.199 7.811-6.454 8.908-18.014 2.462-25.816l-28.262-34.214zm133.186-57.067c-2.22-9.876-12.001-16.088-21.911-13.867-9.884 2.22-16.088 12.036-13.867 21.911l9.72 43.304c1.918 8.536 9.478 14.325 17.876 14.325 1.322 0 2.678-.147 4.035-.449 9.884-2.22 16.096-12.036 13.876-21.911l-9.729-43.313zm131.345-12.908c-9.763-2.471-19.794 3.43-22.291 13.254l-10.93 43.019c-2.497 9.815 3.421 19.794 13.236 22.291 1.521.38 3.041.57 4.536.57 8.182 0 15.647-5.521 17.755-13.815l10.938-43.019c2.498-9.833-3.421-19.803-13.244-22.3zm110.341 71.937l-29.212 33.437c-6.661 7.629-5.884 19.207 1.745 25.877 3.482 3.033 7.776 4.527 12.062 4.527 5.098 0 10.187-2.134 13.807-6.29l29.221-33.428c6.661-7.629 5.884-19.215-1.745-25.877-7.639-6.662-19.216-5.867-25.878 1.754zm40.41 152.798c2.877 7.145 9.755 11.483 17.021 11.483 2.272 0 4.588-.432 6.834-1.322l41.17-16.597c9.4-3.784 13.936-14.472 10.161-23.872-3.784-9.392-14.507-13.928-23.864-10.143l-41.17 16.597c-9.392 3.783-13.937 14.462-10.152 23.854z"/>
</svg>
